{
	"asset":{
		"generator":"Khronos glTF Blender I/O v3.6.6",
		"version":"2.0"
	},
	"extensionsUsed":[
		"KHR_materials_specular",
		"KHR_materials_ior",
		"KHR_lights_punctual"
	],
	"extensionsRequired":[
		"KHR_lights_punctual"
	],
	"extensions":{
		"KHR_lights_punctual":{
			"lights":[
				{
					"color":[
						1,
						1,
						1
					],
					"intensity":10.41669053966221,
					"type":"point",
					"name":"Point.003"
				},
				{
					"color":[
						1,
						1,
						1
					],
					"intensity":39.987677023327,
					"type":"point",
					"name":"Point.004"
				},
				{
					"color":[
						1,
						1,
						1
					],
					"intensity":39.987677023327,
					"type":"point",
					"name":"Point.005"
				}
			]
		}
	},
	"scene":0,
	"scenes":[
		{
			"name":"Scene",
			"nodes":[
				0,
				4,
				5,
				6,
				7
			]
		}
	],
	"nodes":[
		{
			"camera":0,
			"name":"Camera",
			"rotation":[
				-0.7071068286895752,
				0,
				0,
				0.7071068286895752
			],
			"translation":[
				0,
				10.769999504089355,
				0
			]
		},
		{
			"mesh":0,
			"name":"Cylinder.001",
			"scale":[
				0.7240108847618103,
				1.1228526830673218,
				0.7240108251571655
			],
			"translation":[
				0,
				0,
				0.7151645421981812
			]
		},
		{
			"name":"BezierCurve",
			"rotation":[
				0.5000003576278687,
				-0.49999988079071045,
				0.5,
				0.4999999403953552
			],
			"translation":[
				0.017506003379821777,
				0.014861524105072021,
				-1.3651821613311768
			]
		},
		{
			"children":[
				2
			],
			"mesh":1,
			"name":"Plane",
			"rotation":[
				-0.4999999403953552,
				0.4999999403953552,
				0.4999999403953552,
				0.5000001788139343
			],
			"scale":[
				0.8528532385826111,
				0.8528532981872559,
				0.20331187546253204
			],
			"translation":[
				0.12739664316177368,
				1.2240986824035645,
				2.0174362659454346
			]
		},
		{
			"children":[
				1,
				3
			],
			"mesh":2,
			"name":"Cylinder",
			"rotation":[
				0.38454967737197876,
				-0.5303809642791748,
				-0.11373061686754227,
				0.7469155788421631
			],
			"scale":[
				0.28330692648887634,
				1.188416838645935,
				0.28330695629119873
			],
			"translation":[
				0,
				-0.0005396935157477856,
				0.23016095161437988
			]
		},
		{
			"extensions":{
				"KHR_lights_punctual":{
					"light":0
				}
			},
			"name":"Point.002",
			"rotation":[
				-0.7071068286895752,
				0,
				0,
				0.7071068286895752
			],
			"translation":[
				7.853452205657959,
				1.7562751770019531,
				0.09280401468276978
			]
		},
		{
			"extensions":{
				"KHR_lights_punctual":{
					"light":1
				}
			},
			"name":"Point.001",
			"rotation":[
				-0.7071068286895752,
				0,
				0,
				0.7071068286895752
			],
			"translation":[
				-3.914289951324463,
				1.7562751770019531,
				-0.6795961856842041
			]
		},
		{
			"extensions":{
				"KHR_lights_punctual":{
					"light":2
				}
			},
			"name":"Point.003",
			"rotation":[
				-0.7071068286895752,
				0,
				0,
				0.7071068286895752
			],
			"translation":[
				0.886099100112915,
				5.550395488739014,
				1.9861412048339844
			]
		}
	],
	"cameras":[
		{
			"name":"Camera",
			"perspective":{
				"aspectRatio":1.7777777777777777,
				"yfov":0.39959652046304894,
				"zfar":100,
				"znear":0.10000000149011612
			},
			"type":"perspective"
		}
	],
	"materials":[
		{
			"doubleSided":true,
			"extensions":{
				"KHR_materials_specular":{
					"specularColorFactor":[
						0.7280484399930356,
						0.7280484399930356,
						0.7280484399930356
					]
				},
				"KHR_materials_ior":{
					"ior":1.4500000476837158
				}
			},
			"name":"Material.003",
			"pbrMetallicRoughness":{
				"metallicFactor":0,
				"roughnessFactor":0.9210526347160339
			}
		},
		{
			"doubleSided":true,
			"name":"Material.002",
			"pbrMetallicRoughness":{
				"baseColorFactor":[
					0.07421283423900604,
					0.4735310971736908,
					0.6375970244407654,
					1
				],
				"metallicFactor":0,
				"roughnessFactor":0.8719298243522644
			}
		},
		{
			"doubleSided":true,
			"extensions":{
				"KHR_materials_specular":{
					"specularColorFactor":[
						1.0109472522943346,
						1.0109472522943346,
						1.0109472522943346
					]
				},
				"KHR_materials_ior":{
					"ior":1.4500000476837158
				}
			},
			"name":"Material.001",
			"pbrMetallicRoughness":{
				"baseColorFactor":[
					1,
					0.12477142363786697,
					0.28744080662727356,
					1
				],
				"metallicFactor":0,
				"roughnessFactor":0.5666666626930237
			}
		}
	],
	"meshes":[
		{
			"name":"Cylinder.002",
			"primitives":[
				{
					"attributes":{
						"POSITION":0,
						"TEXCOORD_0":1,
						"NORMAL":2
					},
					"indices":3,
					"material":0
				}
			]
		},
		{
			"name":"Plane",
			"primitives":[
				{
					"attributes":{
						"POSITION":4,
						"TEXCOORD_0":5,
						"NORMAL":6
					},
					"indices":7,
					"material":1
				}
			]
		},
		{
			"name":"Cylinder.001",
			"primitives":[
				{
					"attributes":{
						"POSITION":8,
						"TEXCOORD_0":9,
						"NORMAL":10
					},
					"indices":11,
					"material":2
				}
			]
		}
	],
	"accessors":[
		{
			"bufferView":0,
			"componentType":5126,
			"count":546,
			"max":[
				0.9980267882347107,
				0.8390741348266602,
				3.6921539306640625
			],
			"min":[
				-0.9980267882347107,
				-0.8390741348266602,
				-5.312054634094238
			],
			"type":"VEC3"
		},
		{
			"bufferView":1,
			"componentType":5126,
			"count":546,
			"type":"VEC2"
		},
		{
			"bufferView":2,
			"componentType":5126,
			"count":546,
			"type":"VEC3"
		},
		{
			"bufferView":3,
			"componentType":5123,
			"count":1080,
			"type":"SCALAR"
		},
		{
			"bufferView":4,
			"componentType":5126,
			"count":32729,
			"max":[
				0.4326980412006378,
				0.04133957624435425,
				-0.2933412790298462
			],
			"min":[
				-0.4326988458633423,
				-0.4768761396408081,
				-1.8373820781707764
			],
			"type":"VEC3"
		},
		{
			"bufferView":5,
			"componentType":5126,
			"count":32729,
			"type":"VEC2"
		},
		{
			"bufferView":6,
			"componentType":5126,
			"count":32729,
			"type":"VEC3"
		},
		{
			"bufferView":7,
			"componentType":5123,
			"count":57600,
			"type":"SCALAR"
		},
		{
			"bufferView":8,
			"componentType":5126,
			"count":5391,
			"max":[
				0.9980267286300659,
				1.000001072883606,
				3.6921539306640625
			],
			"min":[
				-0.9980267286300659,
				-1.000001072883606,
				-3.4855566024780273
			],
			"type":"VEC3"
		},
		{
			"bufferView":9,
			"componentType":5126,
			"count":5391,
			"type":"VEC2"
		},
		{
			"bufferView":10,
			"componentType":5126,
			"count":5391,
			"type":"VEC3"
		},
		{
			"bufferView":11,
			"componentType":5123,
			"count":12564,
			"type":"SCALAR"
		}
	],
	"bufferViews":[
		{
			"buffer":0,
			"byteLength":6552,
			"byteOffset":0,
			"target":34962
		},
		{
			"buffer":0,
			"byteLength":4368,
			"byteOffset":6552,
			"target":34962
		},
		{
			"buffer":0,
			"byteLength":6552,
			"byteOffset":10920,
			"target":34962
		},
		{
			"buffer":0,
			"byteLength":2160,
			"byteOffset":17472,
			"target":34963
		},
		{
			"buffer":0,
			"byteLength":392748,
			"byteOffset":19632,
			"target":34962
		},
		{
			"buffer":0,
			"byteLength":261832,
			"byteOffset":412380,
			"target":34962
		},
		{
			"buffer":0,
			"byteLength":392748,
			"byteOffset":674212,
			"target":34962
		},
		{
			"buffer":0,
			"byteLength":115200,
			"byteOffset":1066960,
			"target":34963
		},
		{
			"buffer":0,
			"byteLength":64692,
			"byteOffset":1182160,
			"target":34962
		},
		{
			"buffer":0,
			"byteLength":43128,
			"byteOffset":1246852,
			"target":34962
		},
		{
			"buffer":0,
			"byteLength":64692,
			"byteOffset":1289980,
			"target":34962
		},
		{
			"buffer":0,
			"byteLength":25128,
			"byteOffset":1354672,
			"target":34963
		}
	],
	"buffers":[
		{
			"byteLength":1379800,
			"uri":"data:application/octet-stream;base64,"
		}
	]
}
